HIERARCHY
ROOT root
{
	OFFSET 0.000000 0.000000 0.000000
	CHANNELS 6 Xposition Yposition Zposition Zrotation Yrotation Xrotation
	JOINT lhip
	{
		OFFSET 0.058581 -0.082280 -0.017664
		CHANNELS 3 Zrotation Yrotation Xrotation
		JOINT lknee
		{
			OFFSET 0.043451 -0.386469 0.008037
			CHANNELS 3 Zrotation Yrotation Xrotation
			JOINT lankle
			{
				OFFSET -0.014790 -0.426874 -0.037428
				CHANNELS 3 Zrotation Yrotation Xrotation
				JOINT ltoe
				{
					OFFSET 0.041054 -0.060286 0.122042
					CHANNELS 3 Zrotation Yrotation Xrotation
					End Site
					{
						OFFSET 0.000000 0.000000 0.000000
					}
				}
			}
		}
	}
	JOINT rhip
	{
		OFFSET -0.060310 -0.090513 -0.013543
		CHANNELS 3 Zrotation Yrotation Xrotation
		JOINT rknee
		{
			OFFSET -0.043257 -0.383688 -0.004843
			CHANNELS 3 Zrotation Yrotation Xrotation
			JOINT rankle
			{
				OFFSET 0.019056 -0.420046 -0.034562
				CHANNELS 3 Zrotation Yrotation Xrotation
				JOINT rtoe
				{
					OFFSET -0.034840 -0.062106 0.130323
					CHANNELS 3 Zrotation Yrotation Xrotation
					End Site
					{
						OFFSET 0.000000 0.000000 0.000000
					}
				}
			}
		}
	}
	JOINT lowerback
	{
		OFFSET 0.004439 0.124404 -0.038385
		CHANNELS 3 Zrotation Yrotation Xrotation
		JOINT upperback
		{
			OFFSET 0.004488 0.137956 0.026820
			CHANNELS 3 Zrotation Yrotation Xrotation
			JOINT chest
			{
				OFFSET -0.002265 0.056032 0.002855
				CHANNELS 3 Zrotation Yrotation Xrotation
				JOINT lowerneck
				{
					OFFSET -0.013390 0.211636 -0.033468
					CHANNELS 3 Zrotation Yrotation Xrotation
					JOINT upperneck
					{
						OFFSET 0.010113 0.088937 0.050410
						CHANNELS 3 Zrotation Yrotation Xrotation
						End Site
						{
							OFFSET 0.000000 0.000000 0.000000
						}
					}
				}
				JOINT lclavicle
				{
					OFFSET 0.071702 0.114000 -0.018898
					CHANNELS 3 Zrotation Yrotation Xrotation
					JOINT lshoulder
					{
						OFFSET 0.122921 0.045205 -0.019046
						CHANNELS 3 Zrotation Yrotation Xrotation
						JOINT lelbow
						{
							OFFSET 0.255332 -0.015649 -0.022946
							CHANNELS 3 Zrotation Yrotation Xrotation
							JOINT lwrist
							{
								OFFSET 0.265709 0.012698 -0.007375
								CHANNELS 3 Zrotation Yrotation Xrotation
								End Site
								{
									OFFSET 0.000000 0.000000 0.000000
								}
							}
						}
					}
				}
				JOINT rclavicle
				{
					OFFSET -0.082954 0.112472 -0.023707
					CHANNELS 3 Zrotation Yrotation Xrotation
					JOINT rshoulder
					{
						OFFSET -0.113228 0.046853 -0.008472
						CHANNELS 3 Zrotation Yrotation Xrotation
						JOINT relbow
						{
							OFFSET -0.260127 -0.014369 -0.031269
							CHANNELS 3 Zrotation Yrotation Xrotation
							JOINT rwrist
							{
								OFFSET -0.269108 0.006794 -0.006027
								CHANNELS 3 Zrotation Yrotation Xrotation
								End Site
								{
									OFFSET 0.000000 0.000000 0.000000
								}
							}
						}
					}
				}
			}
		}
	}
}
MOTION
Frames: 7
Frame Time: 0.033333
-0.019419 -0.459595 0.985850 -179.548675 -0.446593 84.571563 1.271554 1.920677 9.013446 -7.076824 -6.793316 5.676510 -0.923659 2.749727 -25.216853 0.000000 -0.000000 0.000000 -3.386927 -1.956027 -10.088411 -1.797857 -6.032245 13.027778 7.694982 -1.117333 -8.701274 0.000000 -0.000000 0.000000 0.859123 -1.847751 7.084829 -0.203753 -1.905792 0.537248 -3.028422 -1.093232 0.536789 2.573561 -15.781980 6.484784 7.022865 -20.976705 3.415110 -19.045812 0.532330 1.468159 -55.733318 -8.445568 27.570434 -154.949977 -66.181206 170.767872 11.395994 -9.043958 -42.718350 14.265397 3.172205 -0.883576 68.951953 -0.401944 25.998288 -169.353970 78.160491 -156.032082 -4.870451 8.491948 -27.647788 
-0.026029 -0.471182 0.984787 179.554887 -0.883673 84.825908 0.365982 2.116355 8.546813 -7.166212 -5.134503 4.064658 5.318529 6.017806 -25.491846 0.000000 -0.000000 0.000000 -4.299654 -1.462518 -11.973446 -1.423779 -5.217200 14.610019 8.495640 -2.307432 -9.723622 0.000000 -0.000000 0.000000 0.134228 -2.325750 6.613656 -0.502579 -1.412288 0.752027 -3.046010 -0.603803 2.038812 3.669850 -14.908547 4.321183 6.801784 -20.907233 3.577372 -18.451683 1.273625 0.846556 -55.351460 -9.412014 27.182977 -154.493958 -65.881383 169.747473 12.138972 -8.410484 -43.001325 14.909340 3.261871 -1.227876 67.310798 0.661852 27.525831 -171.128015 78.032467 -159.465433 -7.225091 7.817895 -26.996569 
-0.031495 -0.480787 0.984441 178.769947 -1.017514 84.307414 -0.096926 2.163501 9.630022 -7.220571 -5.079456 1.969989 5.244875 6.162083 -24.895948 0.000000 -0.000000 0.000000 -4.680543 -1.208539 -12.680302 -1.325253 -5.071957 15.848475 8.473900 -2.793164 -11.050073 0.000000 -0.000000 0.000000 -0.274689 -2.617049 6.315154 -0.739076 -1.192008 2.522041 -3.044888 -0.133812 2.774093 4.402973 -12.998073 2.503076 6.093297 -20.500529 3.283978 -18.465602 1.779556 -0.285338 -54.580315 -10.035181 26.930181 -154.916032 -65.825070 169.239662 11.493789 -8.435369 -42.955888 15.759162 3.363854 -2.246925 65.526705 1.444394 28.916438 -172.695622 77.910852 -162.550794 -8.762732 7.279631 -26.670066 
-0.038106 -0.492759 0.984698 178.170797 -1.134735 83.874286 -0.807380 2.311050 10.684690 -6.752885 -5.421694 -0.420241 4.773818 6.535842 -23.848170 0.000000 -0.000000 0.000000 -5.141843 -1.477596 -13.946410 -1.353790 -6.384749 18.038460 8.073448 -4.118654 -13.141132 0.000000 -0.000000 0.000000 -0.750023 -2.802697 6.705612 -0.859162 -0.769259 2.577314 -3.160966 -0.479028 3.677907 5.004388 -12.666782 0.501469 4.201234 -21.014029 3.657360 -18.825565 3.035698 -0.940231 -53.273214 -10.169110 26.169629 -154.680193 -65.738416 168.264845 10.183897 -8.779839 -42.714388 16.040007 2.573986 -3.252088 65.473469 1.464968 29.887556 -172.986029 78.643933 -163.329944 -8.689508 7.232357 -25.849878 
-0.039878 -0.496544 0.984931 178.001356 -1.072284 83.754381 -0.917049 2.345751 10.838616 -6.608963 -5.650042 -0.898387 4.813980 6.755572 -23.467121 0.000000 -0.000000 0.000000 -5.177021 -1.586379 -14.332732 -1.279182 -6.693660 18.947411 7.970236 -4.544977 -13.374341 0.000000 -0.000000 0.000000 -0.841538 -2.947469 6.881402 -0.906786 -0.717647 2.515640 -3.156527 -0.443404 3.762013 5.020400 -12.524801 0.775192 4.213150 -20.778459 3.599223 -18.918199 3.336174 -0.919592 -52.776646 -9.787155 25.943175 -154.586668 -65.617879 168.139704 10.704893 -7.714938 -42.511888 16.112754 2.479966 -3.322561 65.257043 1.465612 29.913227 -173.907394 78.846325 -164.195509 -9.086969 6.983170 -25.591691 
-0.042997 -0.503968 0.985679 177.897461 -0.974809 83.555126 -1.213204 2.125781 10.697781 -6.341758 -5.771796 -1.183469 4.913804 7.034958 -23.077549 0.000000 -0.000000 0.000000 -5.202065 -1.386512 -14.927048 -1.261276 -6.963941 21.040915 7.634243 -5.094989 -14.059118 0.000000 -0.000000 0.000000 -1.002500 -3.177944 7.364528 -1.003771 -0.633007 2.063507 -3.161448 -0.400025 4.010113 5.144014 -12.310970 1.001484 4.066019 -20.677280 3.766285 -19.298426 4.286826 -1.131162 -52.327187 -10.137962 24.993047 -152.605259 -65.580538 165.584180 10.087400 -8.798387 -42.350456 16.240567 2.073903 -3.589195 64.914444 1.287561 29.979114 -174.103939 79.209594 -164.585810 -9.024869 7.117365 -25.085992 
-0.045493 -0.511143 0.986594 177.763141 -0.732277 83.563797 -1.252765 1.973029 10.019245 -6.284024 -5.625598 -0.888960 5.120653 7.199539 -22.957427 0.000000 -0.000000 0.000000 -4.882582 -0.775397 -15.613396 -1.305831 -6.620891 23.812838 7.286794 -5.435851 -15.061697 0.000000 -0.000000 0.000000 -0.873792 -3.409039 7.408022 -1.013070 -0.600166 2.025184 -3.291969 -0.293323 3.962686 4.889655 -12.223956 1.465433 4.139523 -20.400951 3.643994 -19.593791 4.396976 -1.072805 -52.000518 -9.776827 25.112461 -153.472530 -65.790584 165.985779 11.265786 -8.018006 -42.430986 16.395392 2.016496 -3.477648 64.470989 1.064038 29.820686 -172.942033 79.293883 -163.519320 -9.647459 6.935291 -24.836328 
